<mxfile host="app.diagrams.net" modified="2021-11-15T22:59:53.745Z" agent="5.0 (Macintosh; Intel Mac OS X 10_15_7) AppleWebKit/537.36 (KHTML, like Gecko) Chrome/95.0.4638.69 Safari/537.36" etag="DgBMnfxESvoaWrtFbPiH" version="15.7.4" type="github">
  <diagram name="Page-1" id="e3a06f82-3646-2815-327d-82caf3d4e204">
    <mxGraphModel dx="2372" dy="1438" grid="1" gridSize="10" guides="1" tooltips="1" connect="1" arrows="1" fold="1" page="1" pageScale="1.5" pageWidth="1169" pageHeight="826" background="none" math="0" shadow="0">
      <root>
        <mxCell id="0" style=";html=1;" />
        <mxCell id="1" style=";html=1;" parent="0" />
        <mxCell id="F-W0n5vRYwPpcsyi4nft-16" value="" style="shape=image;html=1;verticalAlign=top;verticalLabelPosition=bottom;labelBackgroundColor=#ffffff;imageAspect=0;aspect=fixed;image=https://cdn3.iconfinder.com/data/icons/popular-services-brands/512/php-128.png" vertex="1" parent="1">
          <mxGeometry x="675" y="240" width="100" height="100" as="geometry" />
        </mxCell>
        <mxCell id="F-W0n5vRYwPpcsyi4nft-19" value="" style="sketch=0;outlineConnect=0;fontColor=#232F3E;gradientColor=none;fillColor=#232F3D;strokeColor=none;dashed=0;verticalLabelPosition=bottom;verticalAlign=top;align=center;html=1;fontSize=12;fontStyle=0;aspect=fixed;pointerEvents=1;shape=mxgraph.aws4.traditional_server;" vertex="1" parent="1">
          <mxGeometry x="670" y="360" width="103.85" height="180" as="geometry" />
        </mxCell>
        <mxCell id="F-W0n5vRYwPpcsyi4nft-21" value="" style="sketch=0;outlineConnect=0;fontColor=#232F3E;gradientColor=none;fillColor=#232F3D;strokeColor=none;dashed=0;verticalLabelPosition=bottom;verticalAlign=top;align=center;html=1;fontSize=12;fontStyle=0;aspect=fixed;pointerEvents=1;shape=mxgraph.aws4.traditional_server;" vertex="1" parent="1">
          <mxGeometry x="1070" y="360" width="103.85" height="180" as="geometry" />
        </mxCell>
        <mxCell id="F-W0n5vRYwPpcsyi4nft-22" value="" style="shape=image;html=1;verticalAlign=top;verticalLabelPosition=bottom;labelBackgroundColor=#ffffff;imageAspect=0;aspect=fixed;image=https://cdn1.iconfinder.com/data/icons/hawcons/32/699250-icon-23-file-c-128.png" vertex="1" parent="1">
          <mxGeometry x="1060" y="225" width="130" height="130" as="geometry" />
        </mxCell>
        <mxCell id="F-W0n5vRYwPpcsyi4nft-24" value="SMS Middleware" style="text;html=1;strokeColor=none;fillColor=none;align=left;verticalAlign=middle;whiteSpace=wrap;rounded=0;" vertex="1" parent="1">
          <mxGeometry x="670" y="550" width="110" height="30" as="geometry" />
        </mxCell>
        <mxCell id="F-W0n5vRYwPpcsyi4nft-25" value="SMS Gateway" style="text;html=1;strokeColor=none;fillColor=none;align=left;verticalAlign=middle;whiteSpace=wrap;rounded=0;" vertex="1" parent="1">
          <mxGeometry x="1070" y="550" width="110" height="30" as="geometry" />
        </mxCell>
        <mxCell id="F-W0n5vRYwPpcsyi4nft-27" value="" style="endArrow=classic;startArrow=classic;html=1;rounded=0;fontSize=21;strokeWidth=5;" edge="1" parent="1" source="F-W0n5vRYwPpcsyi4nft-31" target="F-W0n5vRYwPpcsyi4nft-19">
          <mxGeometry width="50" height="50" relative="1" as="geometry">
            <mxPoint x="410" y="322.95016122645256" as="sourcePoint" />
            <mxPoint x="590" y="620" as="targetPoint" />
          </mxGeometry>
        </mxCell>
        <mxCell id="F-W0n5vRYwPpcsyi4nft-28" value="" style="endArrow=classic;startArrow=classic;html=1;rounded=0;fontSize=21;strokeWidth=5;" edge="1" parent="1" source="F-W0n5vRYwPpcsyi4nft-33" target="F-W0n5vRYwPpcsyi4nft-19">
          <mxGeometry width="50" height="50" relative="1" as="geometry">
            <mxPoint x="410" y="548.8165412683147" as="sourcePoint" />
            <mxPoint x="800" y="805.9004836793574" as="targetPoint" />
          </mxGeometry>
        </mxCell>
        <mxCell id="F-W0n5vRYwPpcsyi4nft-30" value="" style="endArrow=classic;html=1;rounded=0;fontSize=21;strokeWidth=5;" edge="1" parent="1" source="F-W0n5vRYwPpcsyi4nft-21" target="F-W0n5vRYwPpcsyi4nft-19">
          <mxGeometry width="50" height="50" relative="1" as="geometry">
            <mxPoint x="540" y="670" as="sourcePoint" />
            <mxPoint x="820" y="620" as="targetPoint" />
          </mxGeometry>
        </mxCell>
        <mxCell id="F-W0n5vRYwPpcsyi4nft-31" value="" style="sketch=0;outlineConnect=0;fontColor=#232F3E;gradientColor=none;fillColor=#232F3D;strokeColor=none;dashed=0;verticalLabelPosition=bottom;verticalAlign=top;align=center;html=1;fontSize=12;fontStyle=0;aspect=fixed;pointerEvents=1;shape=mxgraph.aws4.mobile_client;" vertex="1" parent="1">
          <mxGeometry x="200" y="320" width="99.87" height="190" as="geometry" />
        </mxCell>
        <mxCell id="F-W0n5vRYwPpcsyi4nft-33" value="" style="sketch=0;outlineConnect=0;fontColor=#232F3E;gradientColor=none;fillColor=#232F3D;strokeColor=none;dashed=0;verticalLabelPosition=bottom;verticalAlign=top;align=center;html=1;fontSize=12;fontStyle=0;aspect=fixed;pointerEvents=1;shape=mxgraph.aws4.client;" vertex="1" parent="1">
          <mxGeometry x="195.54" y="540" width="108.79" height="106" as="geometry" />
        </mxCell>
      </root>
    </mxGraphModel>
  </diagram>
</mxfile>
